HIERARCHY
ROOT Hips
{
	OFFSET 84.111900 -16.897814 83.209198
	CHANNELS 6 Xposition Yposition Zposition Xrotation Yrotation Zrotation
	JOINT spine
	{
		OFFSET 0.000000 -0.393702 6.846367
		CHANNELS 3 Xrotation Yrotation Zrotation
		JOINT spine1
		{
			OFFSET 0.000000 -0.000002 9.496208
			CHANNELS 3 Xrotation Yrotation Zrotation
			JOINT spine2
			{
				OFFSET 0.000000 0.000000 9.099091
				CHANNELS 3 Xrotation Yrotation Zrotation
				JOINT Neck
				{
					OFFSET 0.000000 -1.113785 23.361206
					CHANNELS 3 Xrotation Yrotation Zrotation
					JOINT Head
					{
						OFFSET 0.000000 -0.000002 7.058014
						CHANNELS 3 Xrotation Yrotation Zrotation
						End Site
						{
							OFFSET 0.000000 5.634187 17.084396
						}
					}
				}
				JOINT RightShoulder
				{
					OFFSET -3.831360 0.533489 9.826309
					CHANNELS 3 Xrotation Yrotation Zrotation
					JOINT RightArm
					{
						OFFSET 0.000000 -0.000002 12.888092
						CHANNELS 3 Xrotation Yrotation Zrotation
						JOINT RightArmRoll
						{
							OFFSET 0.000000 -0.000002 6.506165
							CHANNELS 3 Xrotation Yrotation Zrotation
							JOINT RightForeArm
							{
								OFFSET 0.000000 -0.000002 18.950104
								CHANNELS 3 Xrotation Yrotation Zrotation
								JOINT RightForeArmRoll
								{
									OFFSET 0.000000 -0.000002 7.300919
									CHANNELS 3 Xrotation Yrotation Zrotation
									JOINT RightHand
									{
										OFFSET 0.000000 -0.000002 14.651398
										CHANNELS 3 Xrotation Yrotation Zrotation
										End Site
										{
											OFFSET 0.000000 0.000000 0.100006
										}
									}
								}
							}
						}
					}
				}
				JOINT LeftShoulder
				{
					OFFSET 3.831360 0.533489 9.826309
					CHANNELS 3 Xrotation Yrotation Zrotation
					JOINT LeftArm
					{
						OFFSET 0.000000 -0.000002 12.888092
						CHANNELS 3 Xrotation Yrotation Zrotation
						JOINT LeftArmRoll
						{
							OFFSET 0.000000 -0.000002 6.506165
							CHANNELS 3 Xrotation Yrotation Zrotation
							JOINT LeftForeArm
							{
								OFFSET 0.000000 -0.000002 18.950104
								CHANNELS 3 Xrotation Yrotation Zrotation
								JOINT LeftForeArmRoll
								{
									OFFSET 0.000000 -0.000002 7.300919
									CHANNELS 3 Xrotation Yrotation Zrotation
									JOINT LeftHand
									{
										OFFSET 0.000000 -0.000002 14.651398
										CHANNELS 3 Xrotation Yrotation Zrotation
										End Site
										{
											OFFSET 0.000000 0.000000 0.100006
										}
									}
								}
							}
						}
					}
				}
			}
		}
	}
	JOINT RightUpLeg
	{
		OFFSET -6.068367 0.933477 -1.112778
		CHANNELS 3 Xrotation Yrotation Zrotation
		JOINT RightUpLegRoll
		{
			OFFSET 0.000000 -0.000003 17.179596
			CHANNELS 3 Xrotation Yrotation Zrotation
			JOINT RightLeg
			{
				OFFSET 0.000000 0.000004 -21.274300
				CHANNELS 3 Xrotation Yrotation Zrotation
				JOINT RightLegRoll
				{
					OFFSET 0.000000 -0.000004 21.343903
					CHANNELS 3 Xrotation Yrotation Zrotation
					JOINT RightFoot
					{
						OFFSET 0.000000 -0.000003 17.765198
						CHANNELS 3 Xrotation Yrotation Zrotation
						JOINT RightToeBase
						{
							OFFSET 0.000000 -0.000003 14.850792
							CHANNELS 3 Xrotation Yrotation Zrotation
							End Site
							{
								OFFSET 0.006294 0.829003 7.192139
							}
						}
					}
				}
			}
		}
	}
	JOINT LeftUpLeg
	{
		OFFSET 6.068367 0.933477 -1.112778
		CHANNELS 3 Xrotation Yrotation Zrotation
		JOINT LeftUpLegRoll
		{
			OFFSET 0.000000 -0.000003 17.179703
			CHANNELS 3 Xrotation Yrotation Zrotation
			JOINT LeftLeg
			{
				OFFSET 0.000000 -0.000004 21.274200
				CHANNELS 3 Xrotation Yrotation Zrotation
				JOINT LeftLegRoll
				{
					OFFSET 0.000000 -0.000003 21.541199
					CHANNELS 3 Xrotation Yrotation Zrotation
					JOINT LeftFoot
					{
						OFFSET 0.000000 -0.000003 17.567902
						CHANNELS 3 Xrotation Yrotation Zrotation
						JOINT LeftToeBase
						{
							OFFSET 0.000000 -0.000003 14.850800
							CHANNELS 3 Xrotation Yrotation Zrotation
							End Site
							{
								OFFSET -0.028214 0.829004 7.192123
							}
						}
					}
				}
			}
		}
	}
}
MOTION
Frames: 9
Frame Time: 0.041667
57.513504 1.190647 90.991707 -1.334372 -0.604434 -6.222581 -0.685327 -0.212583 0.199899 2.632913 -0.426957 0.376527 4.277977 -0.422372 0.381562 41.759572 12.795211 6.279000 -4.209943 1.745610 8.416642 26.300900 -60.316881 29.915276 -46.503032 -116.461897 -81.503022 -0.000003 0.000004 -0.000022 81.686057 0.724157 -3.903902 -0.000011 -0.000010 -3.000001 -4.999729 -7.999985 -0.000002 -8.124417 63.526469 9.880312 -23.141690 118.252868 86.193941 0.000001 0.000000 0.000015 121.674260 -13.012592 39.039954 -0.000004 -0.000000 2.999991 -4.999442 8.001112 0.000580 -7.091385 -176.588244 1.067671 -179.999991 0.000005 -1.035999 166.147152 -2.959500 -0.856449 -0.000002 -0.000004 0.175891 69.039245 6.865877 2.197654 25.456953 -7.347358 -0.000001 -10.854307 174.540826 -1.412451 -0.000003 -0.000005 -1.173570 -21.160169 2.783729 1.266396 -0.000001 -0.000000 -0.299006 67.929592 -6.891470 -2.205921 25.456959 7.355613 -0.000001 
57.464802 1.198896 90.987900 -1.331658 -0.627177 -6.207789 -0.684688 -0.211662 0.199817 2.634233 -0.425025 0.377458 4.279296 -0.420438 0.382468 41.746803 12.740856 6.370026 -4.332198 1.859335 8.490442 26.183388 -60.307736 29.786400 -46.461385 -116.601656 -81.631866 -0.000002 0.000005 -0.000022 81.875595 0.824045 -4.010974 -0.000010 -0.000012 -3.000002 -4.999731 -7.999983 0.000001 -7.975746 63.596117 9.714219 -23.253331 117.999632 86.184577 0.000001 0.000001 0.000016 121.799731 -13.010628 39.152837 -0.000004 -0.000000 2.999990 -4.999440 8.001112 0.000582 -7.084350 -176.594145 1.064289 -179.999991 0.000005 -1.035999 166.171372 -2.960790 -0.855441 -0.000003 -0.000004 0.175731 69.038166 6.865818 2.197709 25.456959 -7.347357 -0.000003 -11.057205 174.506265 -1.448031 -0.000004 -0.000004 -1.174350 -21.471980 2.793417 1.287104 -0.000002 -0.000000 -0.305004 67.935083 -6.891206 -2.206028 25.456953 7.355613 -0.000002 
57.415199 1.205961 91.002594 -1.329003 -0.649721 -6.192884 -0.684060 -0.210763 0.199695 2.635552 -0.423122 0.378332 4.280625 -0.418533 0.383320 41.733316 12.686328 6.461357 -4.453616 1.972889 8.565063 26.064395 -60.297955 29.655992 -46.411904 -116.740378 -81.751142 -0.000003 0.000003 -0.000027 82.064798 0.921671 -4.117841 -0.000009 -0.000011 -2.999999 -4.999730 -7.999988 -0.000001 -7.826416 63.665914 9.547373 -23.356957 117.733091 86.174297 0.000001 -0.000000 0.000013 121.931513 -13.011153 39.276214 -0.000005 -0.000002 2.999991 -4.999437 8.001114 0.000582 -7.077605 -176.601043 1.060912 -179.999991 0.000005 -1.035998 166.194485 -2.962051 -0.854484 -0.000002 -0.000004 0.175607 69.037742 6.865792 2.197632 25.456953 -7.347359 -0.000003 -11.257823 174.471773 -1.482823 -0.000005 -0.000005 -1.175140 -21.781484 2.802694 1.307952 -0.000002 -0.000000 -0.310979 67.940349 -6.890886 -2.206236 25.456953 7.355613 -0.000001 
57.370003 1.214165 90.998505 -1.326400 -0.672123 -6.177882 -0.683439 -0.209878 0.199547 2.636881 -0.421238 0.379166 4.281944 -0.416648 0.384133 41.719263 12.631822 6.552761 -4.574432 2.086219 8.640400 25.944158 -60.287792 29.524346 -46.354848 -116.879454 -81.861170 -0.000004 0.000004 -0.000025 82.253735 1.017526 -4.224766 -0.000012 -0.000009 -3.000002 -4.999730 -7.999986 0.000001 -7.676391 63.735678 9.379739 -23.453575 117.458640 86.162003 0.000001 0.000000 0.000013 122.067679 -13.013456 39.408672 -0.000004 -0.000001 2.999990 -4.999441 8.001114 0.000578 -7.071090 -176.606958 1.057334 -179.999991 0.000005 -1.035999 166.216711 -2.963302 -0.852576 -0.000003 -0.000004 0.175508 69.037804 6.865695 2.197611 25.456952 -7.347358 -0.000003 -11.456958 174.437362 -1.517015 -0.000003 -0.000005 -1.175950 -22.089494 2.811642 1.328941 -0.000001 -0.000000 -0.316938 67.945390 -6.890546 -2.206555 25.456957 7.355614 -0.000002 
57.328705 1.217190 91.011902 -1.323827 -0.694444 -6.162829 -0.682826 -0.209003 0.199382 2.638201 -0.419365 0.379977 4.283273 -0.414776 0.384922 41.705033 12.577191 6.644318 -4.694891 2.199302 8.716374 25.823390 -60.277314 29.392189 -46.295763 -117.017314 -81.968704 -0.000003 0.000005 -0.000019 82.442712 1.112060 -4.332011 -0.000012 -0.000007 -3.000001 -4.999730 -7.999984 -0.000000 -7.525619 63.805394 9.211289 -23.547706 117.178138 86.150043 0.000001 0.000001 0.000016 122.206510 -13.016322 39.544640 -0.000003 -0.000001 2.999993 -4.999440 8.001117 0.000583 -7.064680 -176.613829 1.053832 -179.999991 0.000005 -1.035998 166.238417 -2.964546 -0.851690 -0.000003 -0.000004 0.175424 69.038097 6.865602 2.197674 25.456953 -7.347357 -0.000003 -11.655121 174.403061 -1.550821 -0.000004 -0.000004 -1.176770 -22.396696 2.820329 1.350063 -0.000002 -0.000000 -0.322888 67.950424 -6.890169 -2.206866 25.456950 7.355613 -0.000002 
57.277695 1.227224 91.010399 -1.321252 -0.716745 -6.147760 -0.682215 -0.208129 0.199213 2.639520 -0.417496 0.380784 4.284592 -0.412905 0.385705 41.690768 12.522565 6.735768 -4.815249 2.312081 8.792896 25.702548 -60.266536 29.259984 -46.234333 -117.155107 -82.073725 -0.000003 0.000005 -0.000022 82.631970 1.205757 -4.439801 -0.000010 -0.000011 -3.000002 -4.999729 -7.999985 -0.000002 -7.374086 63.874857 9.042003 -23.640512 116.897007 86.137312 0.000001 0.000000 0.000017 122.345982 -13.019042 39.682661 -0.000004 0.000004 2.999992 -4.999440 8.001111 0.000581 -7.058318 -176.619744 1.050203 -179.999991 0.000006 -1.035998 166.259932 -2.965786 -0.850813 -0.000003 -0.000004 0.175345 69.038405 6.865549 2.197645 25.456957 -7.347357 -0.000002 -11.853010 174.368869 -1.584435 -0.000004 -0.000005 -1.177590 -22.703610 2.828858 1.371316 -0.000001 -0.000001 -0.328835 67.955355 -6.889783 -2.207282 25.456952 7.355614 -0.000001 
57.232101 1.233387 91.027298 -1.318668 -0.739084 -6.132713 -0.681596 -0.207252 0.199052 2.640849 -0.415619 0.381601 4.285912 -0.411030 0.386501 41.676650 12.467982 6.827102 -4.935782 2.424526 8.869856 25.581936 -60.255820 29.128076 -46.172079 -117.293473 -82.178302 -0.000004 0.000004 -0.000024 82.821788 1.299039 -4.548421 -0.000012 -0.000005 -2.999999 -4.999732 -7.999980 -0.000001 -7.221761 63.944067 8.871851 -23.735408 116.617994 86.125393 0.000001 0.000000 0.000017 122.484252 -13.020969 39.817325 -0.000002 0.000001 2.999990 -4.999439 8.001113 0.000582 -7.051872 -176.626657 1.046713 -179.999991 0.000005 -1.035998 166.281761 -2.966062 -0.849685 -0.000003 -0.000004 0.175258 69.038685 6.865461 2.197611 25.456957 -7.347357 -0.000002 -12.051442 174.333830 -1.617838 -0.000005 -0.000005 -1.178400 -23.011027 2.837284 1.392701 -0.000002 -0.000000 -0.334787 67.960382 -6.889403 -2.207695 25.456957 7.355613 -0.000001 
57.188698 1.256975 91.021599 -1.316046 -0.761521 -6.117734 -0.680975 -0.206363 0.198912 2.642170 -0.413730 0.382447 4.287240 -0.409138 0.387324 41.663010 12.413382 6.918353 -5.056724 2.536581 8.947198 25.462184 -60.245130 28.997097 -46.112882 -117.431483 -82.287148 -0.000003 0.000003 -0.000024 83.012302 1.392390 -4.658185 -0.000010 -0.000007 -3.000003 -4.999732 -7.999987 -0.000000 -7.068619 64.012827 8.700806 -23.834555 116.345688 86.114007 0.000001 0.000000 0.000015 122.619367 -13.020845 39.947000 -0.000002 0.000001 2.999994 -4.999444 8.001113 0.000583 -7.045288 -176.632558 1.043154 -179.999991 0.000005 -1.035999 166.304274 -2.967327 -0.848759 -0.000002 -0.000004 0.175153 69.038562 6.865419 2.197611 25.456957 -7.347360 -0.000002 -12.251032 174.297972 -1.651213 -0.000005 -0.000005 -1.179210 -23.319458 2.845696 1.414215 -0.000001 -0.000000 -0.340751 67.965443 -6.889097 -2.207920 25.456953 7.355613 -0.000001 
57.147697 1.257547 91.033707 -1.313371 -0.784116 -6.102846 -0.680348 -0.205458 0.198803 2.643489 -0.411817 0.383338 4.288559 -0.407225 0.388192 41.649954 12.358822 7.009435 -5.178342 2.648221 9.024809 25.343886 -60.234666 28.867661 -46.056430 -117.570327 -82.400420 -0.000004 0.000004 -0.000025 83.203766 1.486270 -4.769310 -0.000010 -0.000006 -3.000001 -4.999729 -7.999985 0.000001 -6.914633 64.081040 8.528842 -23.940797 116.083764 86.104131 0.000000 0.000000 0.000015 122.749496 -13.018043 40.067276 -0.000003 0.000000 2.999990 -4.999441 8.001113 0.000582 -7.038477 -176.638459 1.039678 -179.999991 0.000005 -1.035998 166.327701 -2.968592 -0.846784 -0.000002 -0.000004 0.175018 69.037913 6.865345 2.197637 25.456953 -7.347357 -0.000002 -12.452365 174.262264 -1.684982 -0.000004 -0.000004 -1.179990 -23.629693 2.854175 1.435871 -0.000001 -0.000000 -0.346733 67.970812 -6.888784 -2.208121 25.456955 7.355613 -0.000001 
